<?xml version="1.0" standalone="no"?>
<!DOCTYPE svg PUBLIC "-//W3C//DTD SVG 20010904//EN"
 "http://www.w3.org/TR/2001/REC-SVG-20010904/DTD/svg10.dtd">
<svg version="1.0" xmlns="http://www.w3.org/2000/svg"
 width="500.000000pt" height="500.000000pt" viewBox="0 0 500.000000 500.000000"
 preserveAspectRatio="xMidYMid meet">

<g transform="translate(0.000000,500.000000) scale(0.100000,-0.100000)"
fill="#fff" stroke="none">
<path d="M2577 3095 c62 -31 137 -109 164 -170 11 -25 25 -45 30 -45 29 0 -45
126 -100 169 -40 32 -114 71 -133 71 -6 0 11 -11 39 -25z"/>
<path d="M2609 2679 c-17 -32 -12 -107 11 -173 11 -33 20 -61 20 -63 0 -2 -15
-18 -32 -35 l-33 -30 33 16 c17 9 32 21 32 27 0 6 14 27 30 46 17 18 30 42 30
53 0 25 -61 180 -71 180 -5 0 -13 -10 -20 -21z"/>
<path d="M2530 2355 c0 -3 60 -94 132 -201 120 -176 131 -196 120 -215 -12
-18 -11 -20 5 -17 45 8 26 50 -106 243 -115 168 -151 213 -151 190z"/>
<path d="M2072 2215 c0 -64 2 -93 8 -80 11 25 11 122 0 155 -5 16 -8 -10 -8
-75z"/>
<path d="M2070 2023 c0 -48 -5 -84 -12 -91 -7 -7 -8 -12 -2 -12 24 0 34 28 34
96 0 40 -4 76 -10 79 -6 4 -10 -23 -10 -72z"/>
</g>
</svg>
